<?xml version="1.0" encoding="utf-8"?>
<!-- Generator: Adobe Illustrator 27.0.0, SVG Export Plug-In . SVG Version: 6.00 Build 0)  -->
<svg version="1.1" id="Layer_1" xmlns="http://www.w3.org/2000/svg" xmlns:xlink="http://www.w3.org/1999/xlink" x="0px" y="0px"
	 width="141.6px" height="81.9px" viewBox="0 0 141.6 81.9" style="enable-background:new 0 0 141.6 81.9;" xml:space="preserve">
<style type="text/css">
	.st0{fill:#FFFFFF;}
	.st1{fill:#E01C0E;}
</style>
<g>
	<g>
		<path class="st0" d="M24.3,2.7c2.8-1.3,6-1.5,9-1.2c2.1,0.3,4.3,1.1,5.6,2.9c1.1,1.5,1.3,3.6,1,5.4c-2.4,0-4.7,0-7.1,0
			c0.1-0.8,0.1-1.9-0.8-2.3c-1.5-0.7-3.5-0.6-4.8,0.5c-1,0.9-0.8,2.7,0.6,3.1c2.5,0.7,5.3,0.8,7.7,2c1.5,0.6,2.8,1.7,3.3,3.3
			c0.8,2.9-0.1,6.2-2.4,8.1c-2.8,2.5-6.7,3.1-10.3,3c-2.7-0.1-5.7-0.8-7.5-3c-1.4-1.7-1.6-4.1-1.3-6.2c2.4,0,4.8,0,7.1,0
			c-0.1,1.4,0.6,3,2.2,3.4c1.6,0.4,3.8,0.3,4.8-1.2c0.6-0.9,0.3-2.4-0.8-2.7c-3-1.2-6.6-0.8-9.3-2.9c-2.1-1.6-2.4-4.6-1.7-6.9
			C20.2,5.5,22.1,3.7,24.3,2.7z"/>
		<path class="st0" d="M92.4,5.4c2.3-2.9,6.2-4,9.7-4.1c2.8-0.1,5.8,0.4,7.9,2.4c1.6,1.5,1.9,3.9,1.6,6c-2.4,0-4.7,0-7.1,0
			c0.1-0.9,0-1.9-0.9-2.3c-1.4-0.6-3.1-0.5-4.4,0.3c-0.9,0.6-1.3,2.1-0.5,2.9c0.8,0.7,2,0.8,3,1c2.6,0.5,5.4,0.9,7.5,2.8
			c1.6,1.5,1.7,4,1.3,6.1c-0.5,2.3-2.2,4.3-4.3,5.4c-3,1.6-6.6,1.9-9.9,1.5c-2.4-0.3-4.9-1.2-6.3-3.3c-1.2-1.7-1.2-3.8-1-5.8
			c2.4,0,4.8,0,7.2,0c-0.1,1.1,0.3,2.4,1.4,3c1.4,0.7,3.3,0.7,4.7-0.1c1.3-0.6,1.6-2.8,0.1-3.5c-3.1-1.3-6.8-0.9-9.5-3
			C90.1,12.5,90.4,8.1,92.4,5.4z"/>
		<path class="st0" d="M116.4,5.9c2-2.9,5.6-4.2,8.9-4.4c3-0.2,6.4,0.1,8.8,2.2c1.7,1.5,2.1,4,1.7,6.2c-2.4,0-4.7,0-7.1,0
			c0-0.8,0.1-1.8-0.7-2.2c-1.3-0.7-3-0.7-4.4,0c-1,0.5-1.6,1.9-0.9,2.9c0.7,0.8,1.9,0.9,2.9,1.1c2.6,0.5,5.5,0.9,7.6,2.7
			c1.9,1.6,2,4.3,1.4,6.5c-0.7,2.6-2.8,4.5-5.2,5.5c-2.9,1.3-6.2,1.4-9.4,1c-2.3-0.4-4.6-1.3-5.9-3.3c-1.2-1.7-1.2-3.8-1-5.8
			c2.4,0,4.8-0.1,7.2,0.1c-0.1,1.2,0.4,2.6,1.6,3.1c1.5,0.6,3.4,0.6,4.8-0.4c1.2-0.8,1.1-2.9-0.3-3.4c-3-1.1-6.6-0.8-9.3-2.9
			C114.5,12.6,114.7,8.5,116.4,5.9z"/>
		<path class="st0" d="M42.9,1.8c2.4,0,4.7,0,7.1,0c0.3,5.2,0.5,10.5,0.9,15.7c2.4-5.2,4.4-10.5,6.6-15.7c2.3,0,4.7,0,7,0
			c0.6,5.2,1,10.5,1.6,15.7c0.5-0.5,0.6-1.3,0.9-1.9c1.7-4.6,3.3-9.2,5-13.8c2.4,0,4.7,0,7.1,0c-3.4,8.5-6.9,16.9-10.4,25.3
			c-2.4,0-4.8,0-7.2,0c-0.7-5.5-1.2-11.1-2-16.6c-2.3,5.6-4.7,11-7.1,16.6c-2.4,0-4.8,0-7.1,0C44.6,18.6,43.8,10.2,42.9,1.8z"/>
		<path class="st0" d="M81.4,2.7c0.1-0.3,0-1.1,0.6-0.9c2.2,0,4.3,0,6.5,0c-1.3,8.4-2.7,16.9-4,25.3c-2.3,0-4.6,0-6.9,0
			C78.8,18.9,80.1,10.8,81.4,2.7z"/>
		<g>
			<path class="st0" d="M1,59.8c1.4-8.4,2.6-16.9,4.1-25.3c4,0.1,8,0,12,0.1c2.4,0.1,5.1,0.9,6.5,3c1.5,2.3,1.4,5.3,0.6,7.9
				c-0.9,3.1-3.7,5.4-6.7,6.2c-2.7,0.8-5.5,0.5-8.3,0.6c-0.4,2.5-0.8,5.1-1.2,7.6C5.6,59.8,3.3,59.9,1,59.8z M11,40.5
				c-0.3,1.9-0.6,3.8-0.9,5.8c1.9-0.1,3.9,0.3,5.7-0.4c1.9-0.8,2.5-4.2,0.4-5.1C14.5,40.2,12.7,40.5,11,40.5z"/>
		</g>
		<path class="st0" d="M28.6,34.5c2.3,0,4.6,0,6.9,0c-1.3,8.4-2.7,16.9-4,25.3c-2.3,0-4.6,0-6.9,0C25.9,51.4,27.2,42.9,28.6,34.5z"
			/>
		<path class="st0" d="M38.1,34.5c2.6,0,5.1,0,7.7,0c1,2.1,2,4.2,3,6.3c1.7-2.1,3.3-4.2,5-6.3c2.5,0,5.1,0,7.6,0
			c-3.2,4.1-6.5,8.2-9.8,12.3c2.1,4.4,4.2,8.7,6.2,13.1c-2.6,0-5.2,0-7.7,0c-1.1-2.3-2.2-4.6-3.3-6.9c-1.9,2.3-3.7,4.7-5.6,7
			c-2.5,0-5.1,0-7.6,0c3.4-4.3,6.9-8.7,10.3-13C42.1,42.7,40.1,38.6,38.1,34.5z"/>
		<path class="st0" d="M64.2,34.5c6,0,12,0,18,0c-0.3,2-0.6,4-1,6c-3.7,0-7.4,0-11.1,0c-0.2,1.3-0.5,2.7-0.7,4c3.3,0,6.7,0,10,0
			c-0.3,1.8-0.5,3.6-0.8,5.3c-3.3,0-6.7,0-10,0c-0.2,1.4-0.4,2.7-0.6,4.1c3.8,0,7.7,0,11.5,0c-0.3,2-0.7,4-1,6c-6.1,0-12.2,0-18.4,0
			C61.5,51.4,62.9,42.9,64.2,34.5z"/>
		<path class="st0" d="M85.2,34.5c2.3,0,4.6,0,6.9,0c-1,6.5-2,12.9-3,19.4c3.6,0,7.2,0,10.9,0c-0.3,2-0.6,4-1,6
			c-5.9,0-11.8,0-17.8,0C82.5,51.4,83.8,42.9,85.2,34.5z"/>
	</g>
	<rect x="112.4" y="42.1" class="st1" width="17.7" height="17.7"/>
	<rect x="130.1" y="59.8" class="st1" width="11.5" height="11.5"/>
	<rect x="120.1" y="71.3" class="st1" width="10" height="10"/>
</g>
</svg>
